
<svg xmlns:xlink="http://www.w3.org/1999/xlink" xmlns="http://www.w3.org/2000/svg" role="presentation" class="icon-logo-crocodile" width="50" height="23" color="#105a33"><defs><symbol id="crocodile" viewBox="0 0 50 30">
            <path fill="currentColor" id="croco" d="M27.504 14.65l-.225.986c-.017.08-.097.12-.175.08l-1.167-.56c-.09-.04-.09-.113-.001-.155a5.78 5.78 0 0 1 1.427-.463c.1-.02.162.034.14.112m-2.213-.764l-.223.986c-.02.08-.096.12-.174.08l-1.168-.56c-.09-.042-.09-.114 0-.156a5.62 5.62 0 0 1 1.426-.462c.097-.02.163.033.14.11m-.693 3.073c-.016.082-.093.116-.173.08l-1.167-.56c-.09-.04-.1-.113-.001-.155.45-.217.93-.373 1.426-.464.1-.016.164.036.144.113l-.23.986m-1.628-3.45l-.227.984c-.017.083-.093.12-.173.083l-1.166-.56c-.09-.04-.093-.113-.003-.156.452-.216.933-.372 1.43-.464.097-.016.162.037.14.114m-.467 2.027l-.227.983c-.018.084-.095.12-.173.084l-1.168-.562c-.088-.04-.1-.115-.002-.157a5.77 5.77 0 0 1 1.428-.462c.098-.02.16.034.14.114m-.462 2.072l-.227.984c-.017.083-.095.12-.174.083l-1.167-.562c-.088-.04-.09-.114-.002-.156a5.73 5.73 0 0 1 1.427-.463c.098-.02.164.034.143.113m-1.71-3.165c-.015.083-.092.12-.17.083l-1.17-.56c-.09-.042-.092-.112-.002-.155a5.62 5.62 0 0 1 1.429-.464c.097-.017.16.033.14.114l-.23.983m-.234 1.027l-.226.986c-.02.08-.096.118-.175.08l-1.167-.56c-.09-.042-.09-.114-.002-.156.45-.217.932-.373 1.428-.464.1-.017.163.035.142.113m-.45 2.046l-.225.985c-.017.08-.095.118-.173.08l-1.168-.56c-.088-.042-.09-.113-.002-.154a5.62 5.62 0 0 1 1.428-.466c.098-.017.162.035.14.114m-1.894-2.794l-1.17-.56c-.087-.042-.09-.115-.001-.157.453-.215.932-.37 1.43-.462.096-.018.16.034.14.113l-.227.985c-.02.08-.096.118-.173.08m-.07.98l-.226.986c-.018.083-.096.118-.173.08l-1.167-.56c-.1-.043-.093-.113-.003-.156.453-.218.932-.373 1.43-.463.098-.016.16.036.14.112m-.452 2.06l-.227.985c-.017.083-.093.12-.17.082l-1.17-.56c-.088-.042-.09-.113-.003-.155.455-.218.933-.374 1.43-.463.098-.018.162.036.14.113m-1.933-2.634l-1.167-.56c-.09-.04-.094-.1-.003-.155a5.66 5.66 0 0 1 1.428-.462c.1-.017.162.034.142.114l-.227.983c-.016.084-.095.12-.173.082m-.323 2.076c-.017.08-.093.12-.172.08l-1.166-.562c-.087-.04-.092-.11-.002-.154.452-.218.932-.374 1.427-.463.098-.017.164.033.143.113l-.23.984m-.465 2.062c-.017.082-.094.118-.173.082l-1.167-.56c-.09-.04-.092-.113-.002-.156.452-.216.933-.372 1.428-.462.097-.016.162.034.143.113l-.23.984M13.046 15.6c-.017.083-.094.12-.17.082l-1.17-.56c-.088-.038-.093-.113-.002-.154.452-.216.93-.37 1.428-.463.1-.018.162.035.142.115l-.228.982m-.286 1.265l-.228.984c-.018.08-.096.12-.174.08l-1.166-.56c-.09-.04-.1-.113-.002-.155a5.8 5.8 0 0 1 1.427-.463c.1-.017.164.036.143.114m-.47 2.13l-.226.982c-.018.082-.094.12-.173.082l-1.167-.56c-.09-.04-.09-.11-.003-.154.452-.216.932-.372 1.43-.463.096-.02.162.034.14.114m-1.838-2.645l-1.17-.558c-.088-.04-.1-.115-.002-.157a5.85 5.85 0 0 1 1.428-.465c.1-.016.163.034.143.114l-.228.984c-.016.083-.093.12-.172.08m-.098 1.103l-.227.986c-.018.08-.095.12-.173.08l-1.166-.56c-.088-.04-.092-.112-.003-.157a5.78 5.78 0 0 1 1.427-.463c.1-.018.165.037.143.113m-2.11-1.014c-.018.084-.095.12-.173.084l-1.168-.56c-.1-.04-.1-.113-.002-.157.452-.215.932-.37 1.43-.46.096-.02.16.033.14.11l-.227.986m-.468 2.064c-.017.083-.095.12-.174.083l-1.166-.56c-.09-.043-.092-.114-.003-.158a5.88 5.88 0 0 1 1.429-.462c.098-.017.162.035.143.113l-.23.985M5.53 14.52c-.087-.04-.088-.113 0-.154.452-.218.932-.374 1.428-.465.096-.017.16.035.143.113L6.874 15c-.017.082-.095.12-.173.08l-1.17-.56m.123 2.896c-.017.08-.095.12-.173.08l-1.17-.56c-.087-.04-.09-.114-.002-.156.452-.216.933-.372 1.428-.46.1-.02.163.032.145.1l-.23.987M3.117 15.05c-.088-.043-.09-.113-.002-.157.45-.216.932-.373 1.428-.465.098-.017.162.034.143.112l-.23.986c-.018.083-.094.12-.173.082l-1.167-.558m-.253-2.117a5.82 5.82 0 0 1 1.431-.463c.097-.02.162.034.14.112l-.227.984c-.02.083-.096.122-.174.083l-1.17-.56c-.087-.04-.088-.11-.002-.155m.56-1.944a5.63 5.63 0 0 1 1.427-.462c.098-.02.162.033.144.1l-.228.985c-.017.083-.095.123-.174.083l-1.167-.562c-.087-.04-.1-.113-.001-.154M4.91 9.3c.45-.217.93-.372 1.43-.463.098-.018.16.034.14.112l-.225.984c-.017.082-.096.12-.176.082l-1.167-.56c-.1-.042-.09-.112-.002-.155m1.962 2.8l-.228.983c-.018.082-.094.123-.173.082l-1.168-.56c-.088-.04-.1-.112-.001-.156.452-.216.935-.37 1.43-.462.096-.017.16.033.14.113m.904-1.867c.1-.018.164.034.143.113l-.228.984c-.016.082-.09.12-.17.082l-1.168-.56c-.09-.04-.093-.113-.003-.156a5.65 5.65 0 0 1 1.426-.462m-.93-2.224a5.71 5.71 0 0 1 1.427-.463c.097-.017.16.035.142.114l-.227.984c-.017.084-.094.12-.173.08l-1.168-.56c-.09-.04-.093-.114-.002-.156M9 7c.453-.216.93-.37 1.428-.464.098-.017.162.035.14.112l-.226.984c-.018.083-.095.12-.174.083l-1.167-.56C8.924 7.114 8.92 7.042 9 7m27.34 5.996c.66.001 1.065.502 1.138.728l-1.422.307c-.282.06-.467-.06-.495-.28-.036-.244.23-.76.778-.756m2.446.075c.102-.257.315-.432.535-.432.393 0 .582.426.58.556l-.95.2c-.267.05-.26-.093-.165-.334m10.67 7.95c-.407-.255-.765-.286-1.137-.398-.505-.15-.666-.764-.853-.836-.378-.144-.726.427-.954.352s-.322-.823-.508-.892c-.364-.134-.757.44-.987.365s-.352-.813-.537-.88c-.38-.138-.77.458-.997.384s-.293-.842-.48-.912c-.405-.15-.777.457-1.133.4-.228-.035-.725-.118-1.38-.552l-.606-.445c-.066-.025-.234-.066-.193.268.096.783 1.456 1.346 3.02 1.795l4.088 1.31c.584.267.834.586.624.896-.163.24-.564.256-1 .052-.467-.22-.515-.586-.81-.654-.36-.084-.817.594-1.103.53-.367-.085-.408-.864-.732-.95-.43-.114-.907.545-1.19.485s-.39-.892-.66-.96c-.452-.116-.913.575-1.197.515s-.443-.88-.682-.974c-.45-.18-1.053.494-1.676.167-2.02-1.35-1.63-2.047-3.174-2.5-.797-.233-1.79.05-2.372.11-1.367.14-1.313-1.03-1.313-1.03.397.09.953.34 1.973-.035 1.104-.406 1.72-.477 3.16 0 1.214.405 1.937.043 2.36-.065.21-.054.37-.167.762.082s.77.52.963.428c.298-.144.19-.934.705-1.102.234-.077.874.558 1.154.452s.194-.935.706-1.103c.236-.076.876.558 1.155.453s.195-.936.706-1.105c.236-.076.877.56 1.155.454s.195-.936.706-1.106c.234-.076.877.56 1.155.455s.24-.32.466-.883c.044-.11.126-.22.24-.313.312-.254.785-.797.507-1.406-.253-.55-.775-.533-1.922-.3l-6.952 1.502c-.934-1.713-1.567-.582-2.954-.748-.878-.104-2.298-.992-4.544 1.063-1.208-.34-2.274-.038-3.07.404-1.348-.545-3.918-1.85-8.803-1.85-1.382 0-4.677.27-9.922 1.64-1.343.35-2.57.275-2.868-.515-.3-.827.766-1.693 2.796-2.657 5.033-2.39 8.393-1.826 15.16-5.377C29.95 3.133 30.188.902 30.184.36c0-.37-.38-.494-.6-.19-1.22 1.688-1.534 1.548-1.914 1.17-.508-.503-.85.296-1.395.7-.414.305-.497-.063-.833-.277-.572-.367-1.055.717-1.546.935-.57.253-.673-.03-.867-.23-.136-.142-.383-.138-.56.03-1.154 1.087-1.323.963-1.668.6-.256-.27-.396-.456-1.142.293-.43.433-1.152.946-1.37.406s-.41-.857-1.467.1c-.627.566-1.054.613-1.245.345s-.16-1.006-1.152-.233c-.888.693-1.335 1.11-1.628.44-.283-.648-.937-.103-1.434.366-.26.247-.693.833-1.04.237-.347-.6-.902.02-1.615.766-.4.42-.67.235-1.067-.044-.457-.325-.94.835-1.604 1.53-.125.115-.306.2-.706-.077-.516-.353-1.336 1.446-1.568 1.887-.38.712-.8-.187-1.244.457C1.486 11.075.38 12.74.065 15.69c-.376 3.53.944 6.403 2.284 7.46 0 0-.163.395-.35.892-.375.994-.53 2.286-.048 3.19.465.874 1.553 2.33 1.957.956.196-.667.38-.632 1.03-.177.98.684.74-.563.936-.932.138-.26.308-.36 1.115.168.464.3.613-.107.75-.677.426-1.76-.413-2.19-1.24-2.357-.603-.12-1.238-.02-1.238-.02 1.32-1.995 1.484-3.084.001-4.093.22-.1.402-.05.59.03.365.153.67.43.863.768.205.358.54 1.157-.14 2.576.285 0 1.38.068 1.873 1.18.648.207 4.835.537 6.663.244.665-.106.965-.7 1.63-1.314.723-.668 1.565-1.393 2.315-.85-1.28.52-2.18 1.505-2.18 2.754 0 .938.4 1.315 1.068 1.872.612.505.802 1.305 1.026 1.928.286.792.888.817 1.022.065.185-1.04.502-.846.907-.403.494.538.878.456.88-.32.001-.733.223-1.096 1.05-.248.335.344.74.33.733-.418-.008-.915.406-.827.924-.435.18.137.305.235.402.23.407-.022.675-.806.362-1.427-.156-.3-.384-.774-2.496-1.205-.692-.14-.573-.617-.573-.617 5.157.248 9.528-.394 12.402-2.126 3.532.844 8.7.925 10.396.903s2.99-.096 4.053-.6c1.12-.533.95-1.342.433-1.664"></path>
            <path id="langue" d="M36.66085 16.633c-1.43912-.4773-2.05578-.40618-3.15986 0-1.0204.37517-1.57687.12674-1.97347.0354 0 0-.05408 1.17135 1.31327 1.0301.5813-.061 1.57483-.34382 2.37177-.11124 1.54286.45303 1.15544 1.14978 3.17415 2.50045.62313.32764 1.22517-.34753 1.6762-.16685.23878.09506.3966.91652.68163.9745s.74456-.631 1.1966-.51506c.26837.06843.3745.90405.65952.96034s.76156-.59933 1.19116-.48506c.32415.08596.36497.86528.7323.95022.28537.0654.74218-.61315 1.10272-.52888.29388.06843.3415.43315.80884.65393.43605.2046.83673.18944.99966-.05157.20986-.30978-.0398-.62865-.62415-.89562-.94354-.4308-2.52653-.86393-4.08844-1.31022s-2.92483-1.01157-3.0204-1.79494c-.04048-.32966.12245-.2936.19014-.269-.60136-.4419-.72653-.8599-.69626-1.09112l-.00068-.00034s-.00068 0-.00068.00034h-.00034l-.00068-.00034-.17245.05022c-.42313.10787-1.14626.4699-2.36054.06472"></path>
        </symbol></defs>
<use xmlns:xlink="http://www.w3.org/1999/xlink" xlink:href="#crocodile" fill="#E72734"></use>
</svg>