
<svg xmlns:xlink="http://www.w3.org/1999/xlink" xmlns="http://www.w3.org/2000/svg" role="presentation" class="no-mob no-tab icon-logo-lacoste" width="104" height="23"><defs><symbol id="lacoste" viewBox="0 0 104 23">
            <path fill="currentColor" d="M20.3186 7.20822l3.01388 6.39755h-5.83954l2.82566-6.39755zM2.63718 4.68588H0v14.4035h10.52304v-2.30287H2.63718V4.68588zM81.4923 6.989V19.0894h2.63718V6.989h5.19896V4.68588H76.44307V6.989h5.04924zM53.38597 16.823c-2.93875 0-5.16126-2.15708-5.16126-4.93572s2.2225-4.93495 5.16126-4.93495 5.16153 2.15682 5.16153 4.93495-2.22278 4.93572-5.16153 4.93572zm-15.7859-9.87067c2.22278 0 3.46597 1.16946 4.18194 1.7913L43.6281 6.989c-.60262-.65815-2.3733-2.59576-6.06572-2.59576-4.25734 0-8.0249 2.77813-8.0249 7.49412s3.72985 7.49464 7.9872 7.49464c3.27802 0 5.5008-1.7184 6.21624-2.33997l-1.46938-2.0105c-1.1678.95077-3.01388 1.79155-4.70917 1.79155-2.93848 0-5.16153-2.15708-5.16153-4.93572s2.22304-4.93495 5.19923-4.93495zm25.84534 10.7112c.60288.47552 2.41126 1.7184 5.5762 1.7184 3.2021 0 5.80157-1.68156 5.80157-4.3139 0-5.48362-8.17514-3.729-8.17514-6.7265 0-.84078.7157-1.5355 2.59948-1.5355 2.26047 0 3.72958.9871 4.2945 1.42577l1.0932-2.1205c-.67854-.6213-2.75053-1.71814-5.3877-1.71814-3.95603 0-5.57593 2.15708-5.57593 4.27732 0 4.97178 8.1754 3.54627 8.1754 6.50755 0 1.24288-1.2809 1.79078-2.75027 1.79078-2.22278 0-3.99373-.95-4.74713-1.49867l-.9042 2.1934zm39.48385-12.97774H91.66432v14.4035h11.49086v-2.30287h-8.8534v-3.76548h7.53483v-2.3034h-7.53483V6.989h8.6275V4.68588zm-76.9973 14.4035h3.108L21.9008 4.68588h-2.97645l-6.59294 14.4035h2.75027l1.43168-3.25364h7.874l1.5445 3.25364zm27.454.29263c4.25734 0 8.0249-2.7784 8.0249-7.49464s-3.76755-7.49412-8.0249-7.49412-8.0249 2.77813-8.0249 7.49412 3.7678 7.49464 8.0249 7.49464z"></path>
        </symbol></defs>
<use xmlns:xlink="http://www.w3.org/1999/xlink" xlink:href="#lacoste"></use>
</svg>